<?xml version="1.0" standalone="no"?>
<!DOCTYPE svg PUBLIC "-//W3C//DTD SVG 1.1//EN" "http://www.w3.org/Graphics/SVG/1.1/DTD/svg11.dtd" >
<svg>
<metadata>
Created by FontForge 20090914 at Mon Aug 18 09:37:39 2014
 By www-data
Copyright (URW)++, copyright 1999 by (URW)++ Design &#38; Development; Cyrillic glyphs added by Valek Filippov, copyright 2001-2002; Vietnamese characters were added by Han The Thanh; copyright 2006, 2008 for TeX Gyre extensions by B. Jackowski and J.M. Nowacki (on behalf of TeX users groups). This work is released under the GUST Font License --  see http://tug.org/fonts/licenses/GUST-FONT-LICENSE.txt for details.
</metadata>
<defs>
<font id="TeXGyreAdventor-Regular" horiz-adv-x="1134" >
  <font-face 
    font-family="TeX Gyre Adventor"
    font-weight="400"
    font-stretch="normal"
    units-per-em="2048"
    panose-1="0 0 5 0 0 0 0 0 0 0"
    ascent="1655"
    descent="-393"
    x-height="1120"
    cap-height="1513"
    bbox="-92 -513.999 2124 1882"
    underline-thickness="118"
    underline-position="-197"
    unicode-range="U+0020-U+FB04"
  />
<missing-glyph horiz-adv-x="573" 
 />
    <glyph glyph-name=".notdef" horiz-adv-x="573" 
 />
    <glyph glyph-name="space" unicode=" " horiz-adv-x="567" 
 />
    <glyph glyph-name="exclam" unicode="!" horiz-adv-x="604" 
d="M227 0v258h152v-258h-152zM227 403v1110h152v-1110h-152z" />
    <glyph glyph-name="quotedbl" unicode="&#x22;" horiz-adv-x="632" 
d="M152 1051v462h102v-462h-102zM383 1051v462h102v-462h-102z" />
    <glyph glyph-name="numbersign" unicode="#" 
d="M10 485v125h228l59 318h-254v125h276l87 460h131l-84 -460h333l82 460h138l-84 -460h202v-125h-225l-57 -318h252v-125h-277l-88 -485h-135l88 485h-336l-92 -485h-133l92 485h-203zM371 610h334l59 318h-334z" />
    <glyph glyph-name="dollar" unicode="$" 
d="M154 467l141 0.000976562c0 -87.333 24.833 -156.333 74.5 -207s115.5 -76 197.5 -76c76.667 0 139.5 26 188.5 78s73.5 117.667 73.5 197c0 83.333 -28.667 149.333 -86 198c-38 31.333 -101.333 60 -190 86c-76.667 23.333 -133.667 45.666 -171 66.999
s-69.666 49 -96.999 83c-53.333 64 -80 143 -80 237c0 92.667 26.667 171.5 80 236.5s125.666 106.5 216.999 124.5v168h135v-168c101.333 -15.333 182 -56 242 -122s90 -149 90 -249h-144c0 75.333 -21.833 134.5 -65.5 177.5s-101 64.5 -172 64.5
s-127.333 -21.833 -169 -65.5s-62.5 -103.167 -62.5 -178.5c0 -62.667 17.5 -110.667 52.5 -144s100.833 -65.666 197.5 -96.999c126.667 -40.667 214 -85.334 262 -134.001c75.333 -70.667 113 -164 113 -280c0 -108 -32.167 -199.5 -96.5 -274.5
s-146.833 -118.167 -247.5 -129.5v-174h-135v174c-232 42.667 -348 178.667 -348 408z" />
    <glyph glyph-name="percent" unicode="%" horiz-adv-x="1587" 
d="M27 1174c0 101.333 35.167 186.667 105.5 256s155.833 104 256.5 104c96.667 0 180.167 -35.5 250.5 -106.5s105.5 -155.5 105.5 -253.5c0 -100 -35 -185.167 -105 -255.5s-155 -105.5 -255 -105.5c-98 0 -182.167 35.167 -252.5 105.5s-105.5 155.5 -105.5 255.5z
M162 1174c0 -61.333 21.834 -114.331 65.501 -158.998s96.167 -67 157.5 -67c60 0 111.833 21.833 155.5 65.5s65.5 97.167 65.5 160.5c0 61.333 -21.5 114.166 -64.5 158.499s-94.5 66.5 -154.5 66.5c-62.667 0 -115.834 -21.833 -159.501 -65.5
s-65.5 -96.834 -65.5 -159.501zM373.001 0.00292969l680 1513h151l-684 -1513h-147zM821.001 332.003c0 101.333 35.167 186.667 105.5 256s156.166 104 257.499 104c96.667 0 180.167 -35.5 250.5 -106.5s105.5 -154.833 105.5 -251.5
c0 -100 -35.167 -185.167 -105.5 -255.5s-155.166 -105.5 -254.499 -105.5c-98 0 -182.333 35.333 -253 106s-106 155 -106 253zM958.001 332.004c0 -61.333 22 -113.831 66 -157.498s96 -65.5 156 -65.5s111.833 21.833 155.5 65.5s65.5 96.167 65.5 157.5
s-21.5 114.166 -64.5 158.499s-94.5 66.5 -154.5 66.5c-62.667 0 -115.667 -21.833 -159 -65.5s-65 -96.834 -65 -159.501z" />
    <glyph glyph-name="ampersand" unicode="&#x26;" horiz-adv-x="1550" 
d="M117 436c0 100 27.6699 184.502 83.0029 253.502s143.666 134.833 264.999 197.5c-62.667 65.333 -106.334 121.5 -131.001 168.5s-37 96.5 -37 148.5c0 94 34.833 173.5 104.5 238.5s154.167 97.5 253.5 97.5c105.333 0 192.5 -32.833 261.5 -98.5
s103.5 -148.167 103.5 -247.5c0 -80.667 -20.167 -144.834 -60.5 -192.501s-118.5 -100.834 -234.5 -159.501l287 -283l221 426h168l-279 -534l383 -373l-104 -105l-350 340c-60 -118.667 -126.333 -205 -199 -259s-158.667 -81 -258 -81
c-136.667 0 -250.334 44.667 -341.001 134s-136 199 -136 329zM266.003 420.002c0 -86 30.832 -158.998 92.499 -218.998s136.834 -90 225.501 -90c72.667 0 136.167 23.833 190.5 71.5s108.833 127.5 163.5 239.5l-365 356c-112 -54.667 -191.167 -108.834 -237.5 -162.501
s-69.5 -118.834 -69.5 -195.501zM449.002 1208c0 -70.667 55.001 -156.666 165.001 -257.999c90 34 156.333 71.833 199 113.5s64 89.167 64 142.5c0 56 -20.833 102.833 -62.5 140.5s-93.5 56.5 -155.5 56.5c-58.667 0 -108.334 -18.833 -149.001 -56.5
s-61 -83.834 -61 -138.501z" />
    <glyph glyph-name="quotesingle" unicode="'" horiz-adv-x="405" 
d="M152 1051v462h102v-462h-102z" />
    <glyph glyph-name="parenleft" unicode="(" horiz-adv-x="755" 
d="M117 633c0 188.667 52.167 367.832 156.5 537.499s241.833 283.834 412.5 342.501v-129c-132.667 -79.333 -235.5 -188.5 -308.5 -327.5s-109.5 -280.167 -109.5 -423.5c0 -148.667 35.833 -291 107.5 -427s175.167 -245.667 310.5 -329v-133
c-162.667 60 -298.167 175.667 -406.5 347s-162.5 352 -162.5 542z" />
    <glyph glyph-name="parenright" unicode=")" horiz-adv-x="755" 
d="M70 -125c132.667 76.667 235.332 185.334 307.999 326.001s109 282.667 109 426c0 147.333 -36.167 289.666 -108.5 426.999s-175.166 246 -308.499 326v133c161.333 -57.333 296.5 -172.333 405.5 -345s163.5 -353.667 163.5 -543c0 -188.667 -52.167 -368 -156.5 -538
s-241.833 -284.333 -412.5 -343v131z" />
    <glyph glyph-name="asterisk" unicode="*" horiz-adv-x="870" 
d="M131 1194v100h215l-115 189l101 57l108 -184l107 184l96 -57l-117 -189h211v-100h-209l113 -180l-96 -56l-109 187l-108 -187l-99 58l117 178h-215z" />
    <glyph glyph-name="plus" unicode="+" horiz-adv-x="1241" 
d="M129 436v152h416v416h151v-416h416v-152h-416v-416h-151v416h-416z" />
    <glyph glyph-name="comma" unicode="," horiz-adv-x="567" 
d="M186 -137l181 395h151l-180 -395h-152z" />
    <glyph glyph-name="hyphen" unicode="-" horiz-adv-x="679" 
d="M63 477v129h555v-129h-555z" />
    <glyph glyph-name="period" unicode="." horiz-adv-x="567" 
d="M207 0v258h151v-258h-151z" />
    <glyph glyph-name="slash" unicode="/" horiz-adv-x="894" 
d="M82 -262l588 1775h143l-594 -1775h-137z" />
    <glyph glyph-name="zero" unicode="0" 
d="M61 551v430c0 184 44.833 323.167 134.5 417.5s213.5 141.5 371.5 141.5c155.333 0 278.833 -46.333 370.5 -139s137.5 -232.667 137.5 -420v-430c0 -385.333 -165 -578 -495 -578c-164 0 -291.5 47.5 -382.5 142.5s-136.5 240.167 -136.5 435.5zM211 575
c0 -168 30.999 -287.333 92.999 -358s151.667 -106 269 -106c121.333 0 210.5 36.167 267.5 108.5s85.5 190.833 85.5 355.5v371c0 146 -26.667 258.667 -80 338s-145.666 119 -276.999 119c-117.333 0 -206.333 -35.5 -267 -106.5s-91 -187.833 -91 -350.5v-371z" />
    <glyph glyph-name="one" unicode="1" 
d="M317 1376v137h408v-1513h-150v1376h-258z" />
    <glyph glyph-name="two" unicode="2" 
d="M68 0v136.999l530 512c54.667 52 94 90.333 118 115s52 56.834 84 96.501s54.167 77.167 66.5 112.5s18.5 73.333 18.5 114c0 91.333 -30.833 166.833 -92.5 226.5s-140.167 89.5 -235.5 89.5c-101.333 0 -181.333 -32.833 -240 -98.5s-88 -159.167 -88 -280.5h-149
c0 160 43.333 286 130 378s203 138 349 138c138 0 252 -43.333 342 -130s135 -197 135 -331c0 -80.667 -19.667 -155 -59 -223s-112.333 -152.667 -219 -254l-486 -465h756v-137h-960z" />
    <glyph glyph-name="three" unicode="3" 
d="M68 473h149.002c0 -120 31.833 -210.333 95.5 -271s143.834 -91 240.501 -91c92.667 0 170.5 32.667 233.5 98s94.5 146 94.5 242c0 79.333 -24 150 -72 212s-109.333 101.667 -184 119c-32.667 6.66699 -91.334 11 -176.001 13v135l34 -2c12 -1.33301 25 -2 39 -2
c79.333 0 142.166 21.5 188.499 64.5s69.5 100.5 69.5 172.5c0 70.667 -21.167 128.334 -63.5 173.001s-97.5 67 -165.5 67c-74 0 -131.5 -23.167 -172.5 -69.5s-61.5 -111.833 -61.5 -196.5h-149c0 122.667 35.167 220.5 105.5 293.5s162.833 109.5 277.5 109.5
c112 0 203.5 -35.833 274.5 -107.5s106.5 -163.5 106.5 -275.5c0 -121.333 -52 -218.333 -156 -291c170.667 -86 256 -221.667 256 -407c0 -136.667 -45.667 -251.834 -137 -345.501s-204 -140.5 -338 -140.5c-140.667 0 -257.334 45.5 -350.001 136.5
s-139 212.167 -139 363.5z" />
    <glyph glyph-name="four" unicode="4" 
d="M25 276v138l737 1099h178v-1099h139v-138h-139v-276h-149v276h-766zM199 414h592v891z" />
    <glyph glyph-name="five" unicode="5" 
d="M53 475h148c13.333 -108 53.833 -195.667 121.5 -263s149.167 -101 244.5 -101c101.333 0 187.166 37.833 257.499 113.5s105.5 168.834 105.5 279.501s-34.833 203.167 -104.5 277.5s-155.834 111.5 -258.501 111.5c-117.333 0 -221.666 -56.667 -312.999 -170l-117 45
l135 745h682v-137h-561l-74 -418c86 48 173 72 261 72c140.667 0 259.334 -50.833 356.001 -152.5s145 -226.167 145 -373.5c0 -148.667 -49.167 -274.334 -147.5 -377.001s-218.5 -154 -360.5 -154c-138 0 -253.667 44.333 -347 133s-151 211.667 -173 369z" />
    <glyph glyph-name="six" unicode="6" 
d="M51 500c0 75.333 12.001 143.667 36.001 205s72 145 144 251l375 557h174l-356 -526c62.667 28.667 122 43 178 43c134 0 247.667 -50.5 341 -151.5s140 -223.833 140 -368.5c0 -154 -48 -282 -144 -384s-218 -153 -366 -153c-148.667 0 -272.834 50.333 -372.501 151
s-149.5 226 -149.5 376zM203.001 508.001c0 -114.667 35.166 -209.499 105.499 -284.499s158.5 -112.5 264.5 -112.5c104 0 189.833 37.167 257.5 111.5s101.5 168.166 101.5 281.499s-34.167 206.5 -102.5 279.5s-155.166 109.5 -260.499 109.5
c-104 0 -191 -36.833 -261 -110.5s-105 -165.167 -105 -274.5z" />
    <glyph glyph-name="seven" unicode="7" 
d="M131 1376v137h873v-137l-619 -1376h-160l623 1376h-717z" />
    <glyph glyph-name="eight" unicode="8" 
d="M86 440c0 188.667 85.333 324 256 406c-117.333 70.667 -176 171.667 -176 303c0 112 38.5 205.167 115.5 279.5s172.833 111.5 287.5 111.5c116 0 211.667 -36.833 287 -110.5s113 -167.167 113 -280.5c0 -146 -60.333 -247 -181 -303
c173.333 -76.667 260.333 -210 261 -400c0 -138 -44.833 -251.333 -134.5 -340s-203.5 -133 -341.5 -133c-139.333 0 -255.333 44.333 -348 133s-139 200 -139 334zM238 442c0 -96.667 31 -176 93 -238s142 -93 240 -93c95.333 0 173.5 31 234.5 93s91.5 141.333 91.5 238
c0 95.333 -30.667 173.5 -92 234.5s-140 91.5 -236 91.5c-96.667 0 -176 -30.5 -238 -91.5s-93 -139.167 -93 -234.5zM317 1161c0 -72.667 24.3311 -132.833 72.998 -180.5s110.334 -71.5 185.001 -71.5c68 0 125.333 23.667 172 71s70 106.5 70 177.5
s-23.5 129.667 -70.5 176s-106.667 69.5 -179 69.5s-132.166 -22.667 -179.499 -68s-71 -103.333 -71 -174z" />
    <glyph glyph-name="nine" unicode="9" 
d="M51 1004c0 154 48.167 281.832 144.5 383.499s218.166 152.5 365.499 152.5c148.667 0 272.834 -50.167 372.501 -150.5s149.5 -225.5 149.5 -375.5c0 -75.333 -12.167 -143.666 -36.5 -204.999s-72.166 -145.333 -143.499 -252l-375 -557h-174l357 526
c-62.667 -28.667 -122.334 -43 -179.001 -43c-134 0 -247.667 50.667 -341 152s-140 224.333 -140 369zM203 1010c0 -113.333 34.167 -206.499 102.5 -279.499s154.833 -109.5 259.5 -109.5c104 0 191.167 36.833 261.5 110.5s105.5 165.167 105.5 274.5
c0 114.667 -35.167 209.5 -105.5 284.5s-158.833 112.5 -265.5 112.5c-104 0 -189.667 -36.833 -257 -110.5s-101 -167.834 -101 -282.501z" />
    <glyph glyph-name="colon" unicode=":" horiz-adv-x="567" 
d="M207 0v258h151v-258h-151zM207 780v258h151v-258h-151z" />
    <glyph glyph-name="semicolon" unicode=";" horiz-adv-x="567" 
d="M84 -137l180 395h152l-180 -395h-152zM256 780v258h152v-258h-152z" />
    <glyph glyph-name="less" unicode="&#x3c;" horiz-adv-x="1241" 
d="M209 455v114l774 650v-197l-606 -510l606 -510v-197z" />
    <glyph glyph-name="equal" unicode="=" horiz-adv-x="1241" 
d="M129 248v151h983v-151h-983zM129 625v151h983v-151h-983z" />
    <glyph glyph-name="greater" unicode="&#x3e;" horiz-adv-x="1241" 
d="M209 2l606 510l-606 510v197l774 -650v-114l-774 -650v197z" />
    <glyph glyph-name="question" unicode="?" horiz-adv-x="1210" 
d="M133 1040c0 160 44.6709 283.334 134.004 370.001s204.333 130 345 130c134 0 244.667 -42 332 -126s131 -190 131 -318c0 -65.333 -14 -124.666 -42 -177.999s-75.333 -110 -142 -170c-76.667 -68 -130.334 -127.667 -161.001 -179s-46.667 -109.333 -48 -174h-143
c1.33301 83.333 17.666 155.333 48.999 216s86 128 164 202c69.333 64 115.333 115.167 138 153.5s34 82.833 34 133.5c0 87.333 -29.333 159.666 -88 216.999s-133.334 86 -224.001 86c-102.667 0 -184.334 -30.333 -245.001 -91s-91 -151.334 -91 -272.001h-143z
M535.004 0.000976562v258h151v-258h-151z" />
    <glyph glyph-name="at" unicode="@" horiz-adv-x="1775" 
d="M145 752c0 218.667 76.1689 404.667 228.502 558s337.166 230 554.499 230c194 0 359.833 -63.167 497.5 -189.5s206.5 -280.833 206.5 -463.5c0 -147.333 -48.5 -284.5 -145.5 -411.5s-207.5 -190.5 -331.5 -190.5c-48 0 -86 8.83301 -114 26.5s-50 47.5 -66 89.5
c-70.667 -70.667 -152 -106 -244 -106c-83.333 0 -151.166 28.333 -203.499 85s-78.5 129.334 -78.5 218.001c0 157.333 51.5 299.333 154.5 426s217.833 190 344.5 190c114.667 0 193.334 -47 236.001 -141l35 103h124l-190 -570
c-27.333 -83.333 -41 -135.666 -41 -156.999c0 -16.667 6.5 -30.5 19.5 -41.5s29.833 -16.5 50.5 -16.5c82 0 160.5 54.667 235.5 164s112.5 220.666 112.5 333.999c0 154 -57.667 283.667 -173 389s-259 158 -431 158c-186 0 -344.833 -67 -476.5 -201
s-197.5 -294.333 -197.5 -481c0 -188.667 65.5 -348.834 196.5 -480.501s290.667 -197.5 479 -197.5s348.166 69 479.499 207l82 -68c-62.667 -75.333 -144.834 -134.5 -246.501 -177.5s-207.834 -64.5 -318.501 -64.5c-217.333 0 -401.5 75.5 -552.5 226.5
s-226.5 335.167 -226.5 552.5zM596.002 602c0 -56 15 -101.331 45 -135.998s69.667 -52 119 -52c88.667 0 167 60.667 235 182c30 53.333 56 114.166 78 182.499s33 122.166 33 161.499c0 50.667 -13.667 90.667 -41 120s-64.333 44 -111 44
c-90 0 -172.167 -52.333 -246.5 -157s-111.5 -219.667 -111.5 -345z" />
    <glyph glyph-name="A" unicode="A" horiz-adv-x="1515" 
d="M23 0l649 1513h170l651 -1513h-166l-219 510h-705l-221 -510h-159zM461 647h588l-291 694z" />
    <glyph glyph-name="B" unicode="B" horiz-adv-x="1175" 
d="M156 0v1513h354c181.333 0 313 -32.333 395 -97s123 -163.334 123 -296.001c0 -146 -56 -250.333 -168 -313c169.333 -68 254 -192.333 254 -373c0 -151.333 -45.333 -261.5 -136 -330.5s-240 -103.5 -448 -103.5h-374zM307 137.001l206.998 0.000976562
c158.667 0 272.834 21.5 342.501 64.5s104.5 117.833 104.5 224.5c0 54.667 -8.66699 101.167 -26 139.5s-38.166 67.666 -62.499 87.999s-59.166 36 -104.499 47s-87.333 17.833 -126 20.5s-90.334 4 -155.001 4h-180v-588zM306.998 862.002l185 -0.000976562
c142 0 241.167 18.833 297.5 56.5s84.5 104.334 84.5 200.001s-26.833 162.5 -80.5 200.5s-155.167 57 -304.5 57h-182v-514z" />
    <glyph glyph-name="C" unicode="C" horiz-adv-x="1665" 
d="M90 752c0 226.667 74.5029 414.666 223.503 563.999s335.833 224 560.5 224c157.333 0 298.166 -37.5 422.499 -112.5s215.833 -177.5 274.5 -307.5h-170c-118.667 187.333 -292 281 -520 281c-180 0 -331.167 -61.833 -453.5 -185.5s-183.5 -276.167 -183.5 -457.5
c0 -177.333 62.833 -329.166 188.5 -455.499s275.834 -189.5 450.501 -189.5c109.333 0 204.166 22.167 284.499 66.5s160.833 116.833 241.5 217.5h168c-152.667 -282.667 -383.334 -424 -692.001 -424c-226.667 0 -415.834 74.5 -567.501 223.5
s-227.5 334.167 -227.5 555.5z" />
    <glyph glyph-name="D" unicode="D" horiz-adv-x="1523" 
d="M156 0v1513h356c138 0 251 -9.16699 339 -27.5s167.667 -48.5 239 -90.5c229.333 -135.333 344 -349.666 344 -642.999c0 -228 -73.833 -410.333 -221.5 -547s-364.167 -205 -649.5 -205h-407zM307 136.999l211 0.000976562c134 0 243.333 10.667 328 32
s157 55.666 217 102.999c144.667 117.333 217 279.333 217 486c0 113.333 -23.833 215.333 -71.5 306s-115.167 162 -202.5 214c-108 65.333 -270.667 98 -488 98h-211v-1239z" />
    <glyph glyph-name="E" unicode="E" horiz-adv-x="1097" 
d="M156 0v1513h827v-137h-676v-542h654v-138h-654v-559h676v-137h-827z" />
    <glyph glyph-name="F" unicode="F" horiz-adv-x="993" 
d="M156 0v1513h768v-137h-617v-547h594v-137h-594v-692h-151z" />
    <glyph glyph-name="G" unicode="G" horiz-adv-x="1785" 
d="M90 760c0 218.667 77.501 403.333 232.501 554s345.167 226 570.5 226c165.333 0 313.5 -39.167 444.5 -117.5s221.833 -182.5 272.5 -312.5h-170c-52 91.333 -124.833 162.666 -218.5 213.999s-199.167 77 -316.5 77c-187.333 0 -344.333 -62.167 -471 -186.5
s-190 -277.166 -190 -458.499c0 -180 64.167 -332.167 192.5 -456.5s285.166 -186.5 470.499 -186.5c146 0 277.5 44 394.5 132s189.833 193.333 218.5 316h-846v137h1028c-12 -196.667 -92.5 -366.667 -241.5 -510s-331.5 -215 -547.5 -215
c-232 0 -427.167 75.833 -585.5 227.5s-237.5 338.167 -237.5 559.5z" />
    <glyph glyph-name="H" unicode="H" horiz-adv-x="1398" 
d="M156 0v1513h151v-665h785v665h151v-1513h-151v711h-785v-711h-151z" />
    <glyph glyph-name="I" unicode="I" horiz-adv-x="462" 
d="M156 0v1513h151v-1513h-151z" />
    <glyph glyph-name="J" unicode="J" horiz-adv-x="987" 
d="M23 358l149.001 0.000976562c5.33301 -76.667 30.833 -137 76.5 -181s106.167 -66 181.5 -66c166.667 0 250 120.667 250 362v1040h151v-1040c0 -166.667 -34.333 -292 -103 -376s-168.667 -126 -300 -126c-120 0 -215.833 34.167 -287.5 102.5
s-110.834 163.166 -117.501 284.499z" />
    <glyph glyph-name="K" unicode="K" horiz-adv-x="1210" 
d="M156 0v1513h151v-870l701 870h190l-598 -737l598 -776h-190l-504 655l-197 -241v-414h-151z" />
    <glyph glyph-name="L" unicode="L" horiz-adv-x="946" 
d="M156 0v1513h151v-1376h627v-137h-778z" />
    <glyph glyph-name="M" unicode="M" horiz-adv-x="1882" 
d="M156 0v1513h235l551 -1288l549 1288h235v-1513h-151v1348l-569 -1348h-132l-567 1348v-1348h-151z" />
    <glyph glyph-name="N" unicode="N" horiz-adv-x="1515" 
d="M156 0v1513h204l848 -1255v1255h152v-1513h-152l-901 1331v-1331h-151z" />
    <glyph glyph-name="O" unicode="O" horiz-adv-x="1779" 
d="M90 766c0 210 79.1689 391.501 237.502 544.501s346.166 229.5 563.499 229.5c220 0 408.167 -76.833 564.5 -230.5s234.5 -338.167 234.5 -553.5c0 -214.667 -78.5 -398.834 -235.5 -552.501s-344.833 -230.5 -563.5 -230.5c-222.667 0 -411.834 77.167 -567.501 231.5
s-233.5 341.5 -233.5 561.5zM244.002 762.001c0 -178.667 63.167 -331.501 189.5 -458.501s278.833 -190.5 457.5 -190.5c176 0 327.5 63.167 454.5 189.5s190.5 276.833 190.5 451.5c0 177.333 -63.5 329.5 -190.5 456.5s-278.5 190.5 -454.5 190.5
c-174.667 0 -326.167 -63.167 -454.5 -189.5s-192.5 -276.166 -192.5 -449.499z" />
    <glyph glyph-name="P" unicode="P" horiz-adv-x="1212" 
d="M156 0v1513h417c206 0 354.833 -36.5 446.5 -109.5s137.5 -189.167 137.5 -348.5c0 -148.667 -43.333 -259.667 -130 -333s-229.667 -110 -429 -110h-291v-612h-151zM307 750l281 -0.00195312c150 0 256.833 23.5 320.5 70.5s95.5 125.167 95.5 234.5
c0 60 -8.33301 110.5 -25 151.5s-36.5 72.333 -59.5 94s-57.833 38.334 -104.5 50.001s-90 18.834 -130 21.501s-94.333 4 -163 4h-215v-626z" />
    <glyph glyph-name="Q" unicode="Q" horiz-adv-x="1783" 
d="M90 756c0 224 78.1689 410.67 234.502 560.003s351.166 224 584.499 224c232 0 424.833 -74 578.5 -222s230.5 -334 230.5 -558c0 -236 -84 -426 -252 -570c72.667 -52 135.667 -77.667 189 -77c18 0 31 0.666992 39 2v-142c-70.667 1.33301 -130.667 11.666 -180 30.999
s-100 52.666 -152 99.999c-128.667 -87.333 -280.334 -131 -455.001 -131c-226.667 0 -419.5 76.167 -578.5 228.5s-238.5 337.166 -238.5 554.499zM244.002 743.003c0 -48 7.33203 -105.333 21.999 -172c106.667 35.333 214.667 53.333 324 54
c146 0 277.333 -26.667 394 -80s241.334 -138 374.001 -254c138 132.667 207 289 207 469c0 181.333 -63.167 333.5 -189.5 456.5s-283 184.5 -470 184.5s-344 -63.167 -471 -189.5s-190.5 -282.5 -190.5 -468.5zM330.001 442.003c49.333 -92.667 127.5 -170.667 234.5 -234
s221.333 -95 343 -95s232.167 30.667 331.5 92c-109.333 100 -216.5 171.667 -321.5 215s-221.833 65 -350.5 65c-85.333 0 -164.333 -14.333 -237 -43z" />
    <glyph glyph-name="R" unicode="R" horiz-adv-x="1243" 
d="M156 0l0.000976562 1513h374c230.667 0 397 -40.5 499 -121.5s153 -202.833 153 -365.5c0 -134 -38.333 -240.5 -115 -319.5s-187.334 -126.167 -332.001 -141.5l424 -565h-188l-510 686c216 0 364.5 24.167 445.5 72.5s121.5 139.5 121.5 273.5
c0 124 -40 212.333 -120 265s-209.333 79 -388 79h-213v-1376h-151z" />
    <glyph glyph-name="S" unicode="S" horiz-adv-x="1019" 
d="M45 424h162.001c10.667 -100 44.334 -176.833 101.001 -230.5s128 -80.5 214 -80.5s157.333 28.333 214 85s85 128.667 85 216c0 83.333 -23.833 147.166 -71.5 191.499s-136.5 86.166 -266.5 125.499c-87.333 26 -148.666 47.5 -183.999 64.5s-68 39.833 -98 68.5
c-70.667 66.667 -106.334 156.334 -107.001 269.001c0 117.333 39.667 214.5 119 291.5s179.666 115.5 300.999 115.5c124 0 225.667 -37.833 305 -113.5s119 -174.5 119 -296.5h-158c0 80.667 -25.5 146 -76.5 196s-115.5 75 -193.5 75c-75.333 0 -137.833 -25 -187.5 -75
s-74.5 -113.167 -74.5 -189.5s23.667 -134.833 71 -175.5c31.333 -27.333 106 -59 224 -95c131.333 -39.333 224.666 -79.666 279.999 -120.999c101.333 -75.333 152 -183 152 -323c0 -128.667 -43.333 -235.667 -130 -321s-195.667 -128 -327 -128
c-136.667 0 -248 41 -334 123s-132.333 191.333 -139 328z" />
    <glyph glyph-name="T" unicode="T" horiz-adv-x="872" 
d="M14 1376v137h844v-137h-346v-1376h-152v1376h-346z" />
    <glyph glyph-name="U" unicode="U" horiz-adv-x="1341" 
d="M156 569l-0.000976562 944h151v-944c0 -304.667 121.667 -456.667 365 -456c241.333 0 362 152 362 456v944h152v-944c0 -199.333 -46.167 -348.5 -138.5 -447.5s-218.166 -148.5 -377.499 -148.5c-158.667 0 -284 49.5 -376 148.5s-138 248.167 -138 447.5z" />
    <glyph glyph-name="V" unicode="V" horiz-adv-x="1437" 
d="M20 1513h166l533 -1325l534 1325h164l-626 -1513h-148z" />
    <glyph glyph-name="W" unicode="W" horiz-adv-x="1966" 
d="M20 1513h156l373 -1316l362 1316h144l362 -1316l373 1316h156l-435 -1513h-194l-336 1241l-332 -1241h-196z" />
    <glyph glyph-name="X" unicode="X" horiz-adv-x="1247" 
d="M16 0l514 774l-485 739h178l402 -606l399 606h176l-485 -739l516 -774h-178l-428 647l-430 -647h-179z" />
    <glyph glyph-name="Y" unicode="Y" horiz-adv-x="1212" 
d="M4 1513h168l430 -847l440 847h166l-528 -1007v-506h-152v506z" />
    <glyph glyph-name="Z" unicode="Z" horiz-adv-x="983" 
d="M35 0v137l743 1239h-721v137h891v-137l-741 -1239h764v-137h-936z" />
    <glyph glyph-name="bracketleft" unicode="[" horiz-adv-x="718" 
d="M229 336v610.001c0 146 37 268.5 111 367.5s174.333 165.5 301 199.5v-153c-100 -44 -169.667 -98.333 -209 -163s-59 -157.667 -59 -279v-556c0 -131.333 19.333 -230.333 58 -297s108.667 -122.334 210 -167.001v-154c-274.667 80.667 -412 278 -412 592z" />
    <glyph glyph-name="backslash" unicode="\" horiz-adv-x="1239" 
d="M172 1513h143l635 -1513h-143z" />
    <glyph glyph-name="bracketright" unicode="]" horiz-adv-x="718" 
d="M78 -102c101.333 45.333 171.332 100.333 209.999 165s58 157 58 277v557c0 130 -19.5 228.333 -58.5 295s-108.833 122.667 -209.5 168v153c274.667 -79.333 411.667 -276.333 411 -591v-609c0 -147.333 -37.167 -270.5 -111.5 -369.5s-174.166 -165.5 -299.499 -199.5
v154z" />
    <glyph glyph-name="asciicircum" unicode="^" horiz-adv-x="1241" 
d="M37 369l498 1144h174l495 -1144h-166l-415 983l-420 -983h-166z" />
    <glyph glyph-name="underscore" unicode="_" horiz-adv-x="1024" 
d="M0 -137h1024v-119h-1024v119z" />
    <glyph glyph-name="grave" unicode="`" horiz-adv-x="768" 
d="M74 1450l69 119l396 -238l-70 -114z" />
    <glyph glyph-name="a" unicode="a" horiz-adv-x="1398" 
d="M86 557c0 168 56.332 308.333 168.999 421s253 169 421 169c188.667 0 336 -75 442 -225v198h152v-1120h-152v197c-60 -80.667 -123.167 -138.167 -189.5 -172.5s-147.166 -51.5 -242.499 -51.5c-172 0 -315 55.667 -429 167s-171 250.333 -171 417zM239.999 567
c0 -128.667 43.001 -236.501 129.001 -323.501s192.333 -130.5 319 -130.5c120 0 221.667 43.667 305 131s125 194.333 125 321c0 124 -42.333 228.833 -127 314.5s-188.334 128.5 -311.001 128.5c-121.333 0 -225 -43.167 -311 -129.5s-129 -190.166 -129 -311.499z" />
    <glyph glyph-name="b" unicode="b" horiz-adv-x="1396" 
d="M129 0l-0.000976562 1513h152v-585c100 146 246.667 219 440 219c166.667 0 306.667 -56.333 420 -169s170 -251.667 170 -417c0 -168 -56.333 -308 -169 -420s-253.667 -168 -423 -168c-91.333 0 -175.666 19.167 -252.999 57.5s-139 92.5 -185 162.5v-193h-152z
M269.999 565.5c0 -124.333 43.333 -230.834 130 -319.501s191.667 -133 315 -133c125.333 0 230.333 43.333 315 130s127 194 127 322c0 125.333 -42 230.5 -126 315.5s-188.833 127.5 -314.5 127.5s-231.5 -42.667 -317.5 -128s-129 -190.166 -129 -314.499z" />
    <glyph glyph-name="c" unicode="c" horiz-adv-x="1325" 
d="M86 563c0 162.667 58 300.667 174 414s258 170 426 170c125.333 0 238.333 -33.167 339 -99.5s173.334 -155.5 218.001 -267.5h-170c-88.667 151.333 -218.334 227.333 -389.001 228c-124 0 -229 -43.333 -315 -130s-129 -193 -129 -319c0 -124 43.667 -229.333 131 -316
s193.666 -130 318.999 -130c79.333 0 148.333 16.667 207 50s117.334 89 176.001 167h172c-125.333 -237.333 -308.333 -356.333 -549 -357c-172 0 -316.667 56.667 -434 170s-176 253.333 -176 420z" />
    <glyph glyph-name="d" unicode="d" horiz-adv-x="1402" 
d="M86 559c0 166.667 56.999 306.333 170.999 419s255.667 169 425 169c180 0 326.667 -68.333 440 -205v571h152v-1513h-152v203c-56 -80.667 -117.667 -139.167 -185 -175.5s-147.666 -54.5 -240.999 -54.5c-173.333 0 -318.333 56 -435 168s-175 251.333 -175 418z
M239.999 564.999c0 -128.667 43.332 -236.167 129.999 -322.5s194 -129.5 322 -129.5c120 0 222.667 44.333 308 133s128 194.5 128 317.5s-44 227.833 -132 314.5s-194 130 -318 130c-121.333 0 -224.666 -43.167 -309.999 -129.5s-128 -190.833 -128 -313.5z" />
    <glyph glyph-name="e" unicode="e" horiz-adv-x="1331" 
d="M86 565c0 162.667 56.334 300.334 169.001 413.001s250.334 169 413.001 169c169.333 0 308.833 -57.667 418.5 -173s164.5 -270 164.5 -464h-1013c5.33301 -110.667 50.666 -204.5 135.999 -281.5s185.333 -115.5 300 -115.5c84.667 0 163.167 23.5 235.5 70.5
s124.166 108.833 155.499 185.5h158c-36.667 -110.667 -106 -204.334 -208 -281.001s-214.333 -115 -337 -115c-165.333 0 -305.333 57 -420 171s-172 254.333 -172 421zM242.001 647h858.002c-26 112 -77.667 200.167 -155 264.5s-170.333 96.5 -279 96.5
c-106.667 0 -198.834 -33.167 -276.501 -99.5s-126.834 -153.5 -147.501 -261.5z" />
    <glyph glyph-name="f" unicode="f" horiz-adv-x="643" 
d="M33 983l0.000976562 137h174v11c0 254.667 143.333 382 430 382v-137c-104 0 -176.833 -19.333 -218.5 -58s-61.834 -104.667 -60.501 -198h279v-137h-279v-983h-151v983h-174z" />
    <glyph glyph-name="g" unicode="g" horiz-adv-x="1378" 
d="M86 555c0 169.333 54.6689 310.331 164.002 422.998s245.666 169 408.999 169c181.333 0 327.666 -75 438.999 -225v198h151v-919c0 -109.333 -7.83301 -197.166 -23.5 -263.499s-42.5 -125.5 -80.5 -177.5c-101.333 -134 -253 -200.667 -455 -200
c-140.667 0 -259.5 34.833 -356.5 104.5s-165.833 169.834 -206.5 300.501h147c56 -100 114.833 -169.333 176.5 -208s140.167 -58 235.5 -58c135.333 0 237.833 38.5 307.5 115.5s104.5 189.5 104.5 337.5v75c-86 -169.333 -228.667 -254 -428 -254
c-164 0 -302.333 56 -415 168s-169 250 -169 414zM240.002 566.998c0 -130 40.833 -238.165 122.5 -324.498s184.167 -129.5 307.5 -129.5c121.333 0 223 44 305 132s123 197.333 123 328c0 121.333 -41.667 224.166 -125 308.499s-185 126.5 -305 126.5
c-124 0 -226.333 -41.333 -307 -124s-121 -188.334 -121 -317.001z" />
    <glyph glyph-name="h" unicode="h" horiz-adv-x="1249" 
d="M129 0l0.000976562 1513h152v-538c79.333 114.667 198 172 356 172c150 0 268 -45.5 354 -136.5s129 -227.167 129 -408.5v-602h-151v602c0 135.333 -31.167 236.833 -93.5 304.5s-146.5 101.5 -252.5 101.5c-102.667 0 -185.334 -32.833 -248.001 -98.5
s-94 -164.167 -94 -295.5v-614h-152z" />
    <glyph glyph-name="i" unicode="i" horiz-adv-x="409" 
d="M129 0v1120h152v-1120h-152zM129 1243v258h152v-258h-152z" />
    <glyph glyph-name="j" unicode="j" horiz-adv-x="415" 
d="M-92 -248c84.667 5.33301 143.667 31.999 177 79.999s50 130 50 246v1042h152v-1042c0 -160 -31.167 -277.167 -93.5 -351.5s-157.5 -114.166 -285.5 -119.499v145zM135 1243v258h152v-258h-152z" />
    <glyph glyph-name="k" unicode="k" horiz-adv-x="1028" 
d="M129 0v1513h152v-1073l522 680h186l-436 -563l465 -557h-189l-372 449l-176 -218v-231h-152z" />
    <glyph glyph-name="l" unicode="l" horiz-adv-x="409" 
d="M129 0v1513h152v-1513h-152z" />
    <glyph glyph-name="m" unicode="m" horiz-adv-x="1921" 
d="M129 0v1120h152v-129c42 56 87.167 96 135.5 120s108.166 36 179.499 36c83.333 0 154.333 -17.167 213 -51.5s110 -88.833 154 -163.5c91.333 144.667 221 217 389 217c132.667 0 239.167 -41.333 319.5 -124s120.5 -202.334 120.5 -359.001v-666h-152v649
c0 240 -99 360.333 -297 361c-94 0 -168.667 -29.833 -224 -89.5s-83 -150.167 -83 -271.5v-649h-151v653c0 118.667 -27.667 207.5 -83 266.5s-128.666 88.5 -219.999 88.5c-94 0 -167.667 -31.167 -221 -93.5s-80 -149.5 -80 -261.5v-653h-152z" />
    <glyph glyph-name="n" unicode="n" horiz-adv-x="1249" 
d="M129 0l0.000976562 1120h152v-145c94 114.667 214 172 360 172c147.333 0 264 -46.167 350 -138.5s129 -232.5 129 -420.5v-588h-151v588c0 280 -115.333 420 -346 420c-106.667 0 -190.334 -32.167 -251.001 -96.5s-91 -162.833 -91 -295.5v-616h-152z" />
    <glyph glyph-name="o" unicode="o" horiz-adv-x="1341" 
d="M86 567c0 164 56.3311 301.667 168.998 413s252.334 167 419.001 167c168 0 306.833 -55.667 416.5 -167s164.5 -252.333 164.5 -423c0 -168 -53.833 -307.333 -161.5 -418s-243.5 -166 -407.5 -166c-173.333 0 -316.666 56 -429.999 168s-170 254 -170 426zM239.998 563
c0 -131.333 41.501 -239.167 124.501 -323.5s188.833 -126.5 317.5 -126.5c121.333 0 221.666 41.5 300.999 124.5s119 188.833 119 317.5c0 130 -40.667 238 -122 324s-183.333 129 -306 129c-124 0 -227.333 -42.5 -310 -127.5s-124 -190.833 -124 -317.5z" />
    <glyph glyph-name="p" unicode="p" horiz-adv-x="1396" 
d="M129 -393l-0.000976562 1513h152v-192c96.667 146 243.334 219 440.001 219c166.667 0 306.667 -56.667 420 -170s170 -253.333 170 -420c0 -164 -57.333 -302.333 -172 -415s-255.334 -169 -422.001 -169c-191.333 0 -336.666 73.333 -435.999 220v-586h-152z
M269.999 565c0 -130 42.332 -237.832 126.999 -323.499s191.334 -128.5 320.001 -128.5c124 0 228.333 42.667 313 128s127 190.666 127 315.999c0 128.667 -42.333 236 -127 322s-189.667 129 -315 129c-124 0 -229.167 -42.833 -315.5 -128.5s-129.5 -190.5 -129.5 -314.5
z" />
    <glyph glyph-name="q" unicode="q" horiz-adv-x="1396" 
d="M86 559c0 166.667 56.668 306.333 170.001 419s253.333 169 420 169c198 0 344.667 -73 440 -219v192h152v-1513h-152v586c-100 -146 -245.333 -219.333 -436 -220c-166.667 0 -307.334 56.333 -422.001 169s-172 251.667 -172 417zM240.001 556.999
c0 -125.333 42.334 -230.667 127.001 -316s189.667 -128 315 -128c124 0 229 42.667 315 128s129 189.333 129 312c0 130 -42.333 238.333 -127 325s-190.334 130 -317.001 130c-125.333 0 -230.333 -43 -315 -129s-127 -193.333 -127 -322z" />
    <glyph glyph-name="r" unicode="r" horiz-adv-x="616" 
d="M129 0v1120h152v-159c30 61.333 70.167 106.666 120.5 135.999s115.833 46 196.5 50v-150c-211.333 -20.667 -317 -135.334 -317 -344.001v-653h-152z" />
    <glyph glyph-name="s" unicode="s" horiz-adv-x="794" 
d="M37 330l148.997 0.00195312c0 -66.667 19.5 -119.5 58.5 -158.5s89.833 -58.5 152.5 -58.5c54.667 0 99.834 18.333 135.501 55s53.5 83 53.5 139c0 54.667 -14.667 95.667 -44 123s-87 58 -173 92c-79.333 31.333 -128.166 51.833 -146.499 61.5s-38.5 25.5 -60.5 47.5
c-56 52 -84 118.667 -84 200c0 91.333 30 166.833 90 226.5s135.667 89.5 227 89.5s166.833 -28.333 226.5 -85s89.5 -129.334 89.5 -218.001h-154c0 52 -14.667 92.333 -44 121s-69.333 43 -120 43c-45.333 0 -83.666 -15.833 -114.999 -47.5s-47 -69.834 -47 -114.501
c0 -64 34.333 -113.333 103 -148c27.333 -13.333 97.666 -43.333 210.999 -90c130 -54.667 194.667 -150 194 -286c0 -102.667 -31.667 -186.5 -95 -251.5s-145.666 -97.5 -246.999 -97.5c-108 0 -195 32.5 -261 97.5s-99 151.5 -99 259.5z" />
    <glyph glyph-name="t" unicode="t" horiz-adv-x="694" 
d="M25 983v137h241v393h152v-393h252v-137h-252v-983h-152v983h-241z" />
    <glyph glyph-name="u" unicode="u" horiz-adv-x="1245" 
d="M129 516v604h152v-604c0 -268.667 111.667 -403 335 -403c108 0 193.167 35.5 255.5 106.5s93.5 179.5 93.5 325.5v575h151v-1120h-151v174c-72.667 -134 -193 -201 -361 -201c-316.667 0 -475 181 -475 543z" />
    <glyph glyph-name="v" unicode="v" 
d="M16 1120h154l393 -942l402 942h153l-471 -1120h-160z" />
    <glyph glyph-name="w" unicode="w" horiz-adv-x="1701" 
d="M14 1120h152l356 -938l264 801h125l265 -801l364 938h148l-435 -1120h-161l-244 743l-242 -743h-164z" />
    <glyph glyph-name="x" unicode="x" horiz-adv-x="983" 
d="M16 0l390 571l-390 549h172l304 -432l301 432h174l-392 -549l392 -571h-174l-301 449l-304 -449h-172z" />
    <glyph glyph-name="y" unicode="y" horiz-adv-x="1097" 
d="M18 1120h166l355 -893l379 893h161l-647 -1513h-162l183 430z" />
    <glyph glyph-name="z" unicode="z" horiz-adv-x="870" 
d="M20 0v137l619 846h-598v137h770v-129l-612 -854h651v-137h-830z" />
    <glyph glyph-name="braceleft" unicode="{" horiz-adv-x="718" 
d="M76 557v140.996c66.667 10.667 110.334 27.667 131.001 51s31 67.333 31 132v348c0 106.667 20.333 179.667 61 219s126 61 256 65v-137c-72.667 -6.66699 -117.5 -18.167 -134.5 -34.5s-25.5 -53.166 -25.5 -110.499v-348c0 -70.667 -10.5 -123.5 -31.5 -158.5
s-58.833 -62.833 -113.5 -83.5c-16.667 -5.33301 -29 -10 -37 -14c72.667 -27.333 121.167 -57.166 145.5 -89.499s36.5 -87.166 36.5 -164.499v-348c0 -52 9.33301 -87.667 28 -107s55 -31.666 109 -36.999l23 -2v-137c-128.667 1.33301 -213.667 22.833 -255 64.5
s-62 115.167 -62 220.5v348c0 62.667 -10.333 105.667 -31 129s-64.334 41 -131.001 53z" />
    <glyph glyph-name="bar" unicode="|" horiz-adv-x="1376" 
d="M612 -256v1769h152v-1769h-152z" />
    <glyph glyph-name="braceright" unicode="}" horiz-adv-x="718" 
d="M78 -121l22.002 2c32.667 2.66699 58.667 7.5 78 14.5s33 17.667 41 32s13.167 27.666 15.5 39.999s3.5 31.5 3.5 57.5v348c0 78 12.167 133 36.5 165s72.833 61.667 145.5 89c-36.667 18 -60.834 30.333 -72.501 37s-27.834 17.167 -48.501 31.5
s-33.667 28.666 -39 42.999s-10.333 33.333 -15 57s-7 52.834 -7 87.501v348c0 26 -1.16699 45.167 -3.5 57.5s-7.5 25.666 -15.5 39.999s-21.5 24.833 -40.5 31.5s-45.167 11.334 -78.5 14.001l-22 2v137c130 -4 215.333 -26.167 256 -66.5s61 -112.833 61 -217.5v-348
c0 -64 10 -107.667 30 -131s62 -40.666 126 -51.999v-141c-64 -10.667 -106 -27.667 -126 -51s-30 -67 -30 -131v-348c0 -106.667 -20.833 -180.5 -62.5 -221.5s-126.5 -62.167 -254.5 -63.5v137z" />
    <glyph glyph-name="asciitilde" unicode="~" horiz-adv-x="1241" 
d="M104 526c49.333 88.667 96.168 151.833 140.501 189.5s95.166 56.5 152.499 56.5c38 0 90.667 -13 158 -39l133 -55c75.333 -31.333 130 -47 164 -47c64 0 129 56 195 168l90 -97c-35.333 -69.333 -79 -124.833 -131 -166.5s-104 -62.5 -156 -62.5
c-38 0 -101.667 17.667 -191 53l-112 45c-72.667 28.667 -122.667 43 -150 43c-44 0 -78.5 -12.167 -103.5 -36.5s-59.5 -73.5 -103.5 -147.5z" />
    <glyph glyph-name="uni00A0" unicode="&#xa0;" horiz-adv-x="567" 
 />
    <glyph glyph-name="cent" unicode="&#xa2;" 
d="M92 782c0 128.667 40.6689 236.668 122.002 324.001s186.666 137.666 315.999 150.999v191h136v-191c87.333 -12 164.333 -45.333 231 -100s115 -124.334 145 -209.001h-170c-64 114.667 -161.333 172 -292 172c-96.667 0 -176.834 -31.667 -240.501 -95
s-95.5 -143.666 -95.5 -240.999c0 -95.333 32.333 -175.833 97 -241.5s143.667 -98.5 237 -98.5c105.333 0 200.666 50 285.999 150h166c-27.333 -75.333 -74.5 -138.5 -141.5 -189.5s-141.167 -82.167 -222.5 -93.5v-184h-136v184
c-125.333 9.33301 -229.666 58.833 -312.999 148.5s-125 197.167 -125 322.5z" />
    <glyph glyph-name="sterling" unicode="&#xa3;" 
d="M37 711l0.00195312 136.998h153c-30 72.667 -45 139.667 -45 201c0 143.333 45.5 261 136.5 353s206.167 138 345.5 138c136.667 0 251.667 -40 345 -120s147.666 -184 162.999 -312h-142c-20.667 92.667 -63 165 -127 217s-143 78 -237 78
c-98 0 -177.833 -32.833 -239.5 -98.5s-92.5 -150.167 -92.5 -253.5c0 -64 19 -131.667 57 -203h582v-137h-440c98 -104 147 -215.333 147 -334c0 -69.333 -19.667 -149.333 -59 -240h116c122.667 0 213.5 28.333 272.5 85s88.5 132.334 88.5 227.001
c0 26 -4 59.333 -12 100h147c10.667 -42 16 -79.667 16 -113c0 -132.667 -43.333 -238.5 -130 -317.5s-212.334 -118.5 -377.001 -118.5h-584v137h285c57.333 64 86 143.333 86 238c0 62.667 -13.333 116.834 -40 162.501s-79 103.5 -157 173.5h-258z" />
    <glyph glyph-name="yen" unicode="&#xa5;" 
d="M0 1513h156l452 -843l443 843h155l-299 -565h211v-137h-284l-99 -188h369v-138h-422v-485h-150v485h-430v138h375l-100 188h-289v137h215z" />
    <glyph glyph-name="dieresis" unicode="&#xa8;" horiz-adv-x="755" 
d="M152 1243v258h151v-258h-151zM453 1243v258h151v-258h-151z" />
    <glyph glyph-name="copyright" unicode="&#xa9;" horiz-adv-x="1529" 
d="M43 698c0 199.333 70.667 370 212 512s311.666 213 510.999 213s370 -71 512 -213s213 -312.667 213 -512s-71 -369.666 -213 -510.999s-312.667 -212 -512 -212s-369.666 70.667 -510.999 212s-212 311.666 -212 510.999zM119 698.5c0 -179 63.167 -331.667 189.5 -458
s278.833 -189.5 457.5 -189.5s331.5 63.167 458.5 189.5s190.5 279 190.5 458s-63.5 332 -190.5 459s-279.833 190.5 -458.5 190.5s-331.167 -63.5 -457.5 -190.5s-189.5 -280 -189.5 -459zM305 696c0 126.667 45.5 232.167 136.5 316.5s205.833 126.5 344.5 126.5
c101.333 0 191.333 -23.333 270 -70s134.334 -109.334 167.001 -188.001h-129c-66.667 101.333 -168.667 151.666 -306 150.999c-104 0 -191 -31.667 -261 -95s-105 -143 -105 -239c0 -91.333 36.167 -169.666 108.5 -234.999s159.166 -98 260.499 -98
c64 0 119.5 11.833 166.5 35.5s94.5 62.834 142.5 117.501h129c-92.667 -173.333 -238 -260 -436 -260c-139.333 0 -255.5 42 -348.5 126s-139.5 188 -139.5 312z" />
    <glyph glyph-name="guillemotleft" unicode="&#xab;" horiz-adv-x="870" 
d="M82 614l231 408l121 -66l-192 -342l192 -344l-121 -67zM432 614l236 408l120 -66l-192 -342l192 -344l-120 -67z" />
    <glyph glyph-name="uni00AD" unicode="&#xad;" horiz-adv-x="679" 
d="M63 477v129h555v-129h-555z" />
    <glyph glyph-name="registered" unicode="&#xae;" horiz-adv-x="1529" 
d="M43 698c0 199.333 70.667 370 212 512s311.666 213 510.999 213s370 -71 512 -213s213 -312.667 213 -512s-71 -369.666 -213 -510.999s-312.667 -212 -512 -212s-369.666 70.667 -510.999 212s-212 311.666 -212 510.999zM119 698.5c0 -179 63.167 -331.667 189.5 -458
s278.833 -189.5 457.5 -189.5s331.5 63.167 458.5 189.5s190.5 279 190.5 458s-63.5 332 -190.5 459s-279.833 190.5 -458.5 190.5s-331.167 -63.5 -457.5 -190.5s-189.5 -280 -189.5 -459zM444 272v852.001h238c142 0 244 -23.5 306 -70.5s93 -116.833 93 -209.5
c0 -150 -83.333 -237.333 -250 -262l256 -310h-149l-330 404c138 -1.33301 232 9.16699 282 31.5s75 69.166 75 140.499c0 62.667 -22.667 106.667 -68 132s-119 38 -221 38h-115v-746h-117z" />
    <glyph glyph-name="acute" unicode="&#xb4;" horiz-adv-x="768" 
d="M229 1331l396 238l69 -119l-395 -233z" />
    <glyph glyph-name="cedilla" unicode="&#xb8;" horiz-adv-x="663" 
d="M166 -340l108.001 12c13.333 -45.333 43.666 -67.666 90.999 -66.999c28.667 0 52.167 9.83301 70.5 29.5s27.5 44.5 27.5 74.5c0 32.667 -9.5 59 -28.5 79s-44.5 30 -76.5 30c-36.667 0 -68 -13 -94 -39l-65 39l77 192h80l-34 -108l26 4c16.667 4 30.334 6 41.001 6
c56 0 103.5 -18.167 142.5 -54.5s58.5 -82.5 58.5 -138.5c0 -65.333 -20.833 -120.5 -62.5 -165.5s-96.834 -67.5 -165.501 -67.5c-50.667 0 -93 15.667 -127 47s-57 73.666 -69 126.999z" />
    <glyph glyph-name="guillemotright" unicode="&#xbb;" horiz-adv-x="870" 
d="M82 270l192 344l-192 342l121 66l235 -408l-235 -411zM436 270l193 344l-193 342l121 66l231 -408l-231 -411z" />
    <glyph glyph-name="circumflex" unicode="&#x2c6;" horiz-adv-x="1028" 
d="M152 1243l297 258h135l293 -258h-183l-176 152l-180 -152h-186z" />
    <glyph glyph-name="ring" unicode="&#x2da;" horiz-adv-x="679" 
d="M133 1391c0 58.667 20.165 107.999 60.498 147.999s89.833 60 148.5 60c56 0 104.167 -20.333 144.5 -61s60.5 -89 60.5 -145c0 -57.333 -20.167 -106.166 -60.5 -146.499s-89.166 -60.5 -146.499 -60.5s-106.166 20.167 -146.499 60.5s-60.5 88.5 -60.5 144.5z
M224.998 1391c0 -31.333 11.333 -57.999 34 -79.999s49.667 -33 81 -33s58.333 11.333 81 34s34 49.667 34 81s-11.333 58.166 -34 80.499s-49.667 33.5 -81 33.5s-58.333 -11.167 -81 -33.5s-34 -49.833 -34 -82.5z" />
    <glyph glyph-name="tilde" unicode="&#x2dc;" horiz-adv-x="899" 
d="M154 1370c52 66.667 115.331 100 189.998 100c12 0 46.333 -10.5 103 -31.5s95.334 -31.5 116.001 -31.5c36.667 0 75.667 21 117 63l68 -94c-16.667 -27.333 -43.5 -50.833 -80.5 -70.5s-72.5 -29.5 -106.5 -29.5c-28.667 0 -73.667 15 -135 45
c-31.333 13.333 -58.666 20 -81.999 20c-19.333 0 -35.5 -3 -48.5 -9s-32.833 -20.667 -59.5 -44l-15 -12z" />
    <glyph glyph-name="afii10017" unicode="&#x410;" horiz-adv-x="1515" 
d="M23 0l649 1513h170l651 -1513h-166l-219 510h-705l-221 -510h-159zM461 647h588l-291 694z" />
    <glyph glyph-name="afii10018" unicode="&#x411;" horiz-adv-x="1169" 
d="M156 0v1513h950v-137h-799v-405h223c222.667 0 387 -38.667 493 -116s159 -201.333 159 -372c0 -168 -53.333 -290.5 -160 -367.5s-270.667 -115.5 -492 -115.5h-374zM307 137l213 0.000976562c170.667 0 298 25.667 382 77s126 141 126 269
c0 131.333 -42 222.666 -126 273.999s-211.333 77 -382 77h-213v-697z" />
    <glyph glyph-name="afii10019" unicode="&#x412;" horiz-adv-x="1169" 
d="M156 0v1513h415c173.333 0 301 -29.333 383 -88c90 -66.667 135.333 -168.334 136 -305.001c0 -158.667 -58.333 -263 -175 -313c173.333 -56 260.333 -180.333 261 -373c0 -154 -47.833 -264.833 -143.5 -332.5s-244.5 -101.5 -446.5 -101.5h-430zM307 137.001h267.999
c144.667 0 255.334 20.833 332.001 62.5s115 117.167 115 226.5c0 114.667 -37.5 193.167 -112.5 235.5s-195.167 63.5 -360.5 63.5h-242v-588zM306.999 858.001h246c128.667 0 224.667 18.167 288 54.5s95 104.833 95 205.5c0 104 -32.5 173 -97.5 207s-168.5 51 -310.5 51
h-221v-518z" />
    <glyph glyph-name="afii10020" unicode="&#x413;" horiz-adv-x="997" 
d="M156 0v1513h888v-137h-737v-1376h-151z" />
    <glyph glyph-name="afii10021" unicode="&#x414;" horiz-adv-x="1736" 
d="M53 137h144l516 1376h147l514 -1376h144v-395h-152v258h-1161v-258h-152v395zM360 137h854l-428 1188z" />
    <glyph glyph-name="afii10022" unicode="&#x415;" horiz-adv-x="1097" 
d="M156 0v1513h827v-137h-676v-542h654v-138h-654v-559h676v-137h-827z" />
    <glyph glyph-name="afii10024" unicode="&#x416;" horiz-adv-x="1994" 
d="M92 0l598 776l-577 737h190l578 -737l-598 -776h-191zM932 0v1513h151v-1513h-151zM1124 776l578 737h190l-577 -737l598 -776h-191z" />
    <glyph glyph-name="afii10025" unicode="&#x417;" horiz-adv-x="1361" 
d="M90 397l162.001 0.000976562c31.333 -61.333 91 -124 179 -188s190 -96 306 -96c132.667 0 238.667 24.833 318 74.5s119 127.834 119 234.501c0 91.333 -31.833 165.666 -95.5 222.999s-139.834 86 -228.501 86h-254v137h258c82 0 149 24 201 72s78 109.333 78 184
c0 86 -38.667 153.667 -116 203s-166.333 74 -267 74c-79.333 0 -150.5 -14.333 -213.5 -43s-109.167 -60.5 -138.5 -95.5s-51.333 -66.833 -66 -95.5l-21 -43h-153l10 31c6.66699 20.667 17.834 46.334 33.501 77.001s38.834 64 69.501 100s66.5 69.5 107.5 100.5
s94.667 56.667 161 77s139.166 30.5 218.499 30.5c139.333 0 262.833 -38.167 370.5 -114.5s161.5 -176.166 161.5 -299.499c0 -147.333 -66 -258.333 -198 -333c60 -18 114.167 -60.833 162.5 -128.5s72.5 -145.834 72.5 -234.501c0 -151.333 -51.833 -265.333 -155.5 -342
s-252.5 -115 -446.5 -115c-82 0 -158.833 12.667 -230.5 38s-130 55.833 -175 91.5s-85.333 74.667 -121 117s-61.334 77.666 -77.001 105.999s-26.167 52.166 -31.5 71.499z" />
    <glyph glyph-name="afii10026" unicode="&#x418;" horiz-adv-x="1357" 
d="M156 0v1513h151v-1343l731 1343h164v-1513h-151v1268l-676 -1268h-219z" />
    <glyph glyph-name="afii10027" unicode="&#x419;" horiz-adv-x="1357" 
d="M156 0v1513h151v-1343l731 1343h164v-1513h-151v1268l-676 -1268h-219zM369 1882l130.999 0.00195312c6.66699 -44 24.334 -75.333 53.001 -94c39.333 -22 81.666 -33 126.999 -33s87.666 11 126.999 33c28.667 19.333 46.334 50.666 53.001 93.999h131
c-9.33301 -50.667 -21.166 -89.334 -35.499 -116.001s-35.833 -50 -64.5 -70c-54.667 -39.333 -125 -59.333 -211 -60c-177.333 0 -281 82 -311 246z" />
    <glyph glyph-name="afii10028" unicode="&#x41a;" horiz-adv-x="1210" 
d="M156 0v1513h151v-1513h-151zM338 776l618 737h191l-619 -737l639 -776h-190z" />
    <glyph glyph-name="afii10029" unicode="&#x41b;" horiz-adv-x="1437" 
d="M72 0l571 1513h148l571 -1513h-160l-483 1325l-481 -1325h-166z" />
    <glyph glyph-name="afii10030" unicode="&#x41c;" horiz-adv-x="1882" 
d="M217 0v1513h236l489 -1288l488 1288h235v-1513h-152v1348l-507 -1348h-132l-505 1348v-1348h-152z" />
    <glyph glyph-name="afii10031" unicode="&#x41d;" horiz-adv-x="1398" 
d="M156 0v1513h151v-665h785v665h151v-1513h-151v711h-785v-711h-151z" />
    <glyph glyph-name="afii10032" unicode="&#x41e;" horiz-adv-x="1779" 
d="M90 766c0 210 79.1689 391.501 237.502 544.501s346.166 229.5 563.499 229.5c220 0 408.167 -76.833 564.5 -230.5s234.5 -338.167 234.5 -553.5c0 -214.667 -78.5 -398.834 -235.5 -552.501s-344.833 -230.5 -563.5 -230.5c-222.667 0 -411.834 77.167 -567.501 231.5
s-233.5 341.5 -233.5 561.5zM244.002 762.001c0 -178.667 63.167 -331.501 189.5 -458.501s278.833 -190.5 457.5 -190.5c176 0 327.5 63.167 454.5 189.5s190.5 276.833 190.5 451.5c0 177.333 -63.5 329.5 -190.5 456.5s-278.5 190.5 -454.5 190.5
c-174.667 0 -326.167 -63.167 -454.5 -189.5s-192.5 -276.166 -192.5 -449.499z" />
    <glyph glyph-name="afii10033" unicode="&#x41f;" horiz-adv-x="1398" 
d="M156 0v1513h1087v-1513h-151v1376h-785v-1376h-151z" />
    <glyph glyph-name="afii10034" unicode="&#x420;" horiz-adv-x="1212" 
d="M156 0v1513h417c181.333 0 316 -26.333 404 -79c120 -70.667 180 -197 180 -379c0 -158.667 -50.333 -274.667 -151 -348c-86 -62.667 -222 -94.334 -408 -95.001h-291v-612h-151zM307 750.001l281 -0.000976562c135.333 0 232.333 17 291 51
c83.333 46.667 125 131.334 125 254.001c0 138 -46 230 -138 276c-60 30 -174.667 45 -344 45h-215v-626z" />
    <glyph glyph-name="afii10035" unicode="&#x421;" horiz-adv-x="1665" 
d="M90 752c0 226.667 74.5 414.666 223.5 563.999s335.833 224 560.5 224c157.333 0 298.166 -37.5 422.499 -112.5s215.833 -177.5 274.5 -307.5h-170c-52 82 -107.333 141.333 -166 178c-101.333 68 -219.333 102.333 -354 103c-180 0 -331.167 -61.833 -453.5 -185.5
s-183.5 -276.167 -183.5 -457.5c0 -177.333 62.833 -329.166 188.5 -455.499s275.834 -189.5 450.501 -189.5c144.667 0 269.334 41.667 374.001 125c40.667 31.333 91.334 84.333 152.001 159h168c-152.667 -282.667 -383.334 -424 -692.001 -424
c-226.667 0 -415.834 74.5 -567.501 223.5s-227.5 334.167 -227.5 555.5z" />
    <glyph glyph-name="afii10036" unicode="&#x422;" horiz-adv-x="954" 
d="M14 1376v137h1049v-137h-449v-1376h-151v1376h-449z" />
    <glyph glyph-name="afii10037" unicode="&#x423;" horiz-adv-x="1220" 
d="M8 1513h168l430 -847l441 847h165l-528 -1007l-266 -506h-166l266 506z" />
    <glyph glyph-name="afii10038" unicode="&#x424;" horiz-adv-x="1689" 
d="M98 807c0 203.333 59.167 362.667 177.5 478s284.5 173 498.5 173v168h152v-168c208.667 0 374.5 -58.333 497.5 -175s184.5 -278.667 184.5 -486c0 -206 -61.167 -367.5 -183.5 -484.5s-288.5 -175.5 -498.5 -175.5v-223h-152v223
c-217.333 0 -384.333 60.167 -501 180.5s-175 283.5 -175 489.5zM252 803.001c0 -161.333 46.001 -289.5 138.001 -384.5s220 -142.5 384 -142.5v1043c-162.667 0 -290.334 -46 -383.001 -138s-139 -218 -139 -378zM926.001 276.001c169.333 0 299.666 44.5 390.999 133.5
s137 217.5 137 385.5s-47.167 297.333 -141.5 388s-223.166 136 -386.499 136v-1043z" />
    <glyph glyph-name="afii10039" unicode="&#x425;" horiz-adv-x="1247" 
d="M16 0l514 774l-485 739h178l402 -606l399 606h176l-485 -739l516 -774h-178l-428 647l-430 -647h-179z" />
    <glyph glyph-name="afii10040" unicode="&#x426;" horiz-adv-x="1458" 
d="M156 0v1513h151v-1376h785v1376h151v-1376h125v-424h-151v287h-1061z" />
    <glyph glyph-name="afii10041" unicode="&#x427;" horiz-adv-x="1300" 
d="M135 1044v469.001h152v-481c0 -70.667 7.5 -127.167 22.5 -169.5s40.167 -72.833 75.5 -91.5s70.5 -30.334 105.5 -35.001s84.5 -7 148.5 -7h354v784h152v-1513h-152v592h-358c-187.333 0 -317.5 34.333 -390.5 103s-109.5 185 -109.5 349z" />
    <glyph glyph-name="afii10042" unicode="&#x428;" horiz-adv-x="1974" 
d="M156 0v1513h151v-1376h604v1376h152v-1376h604v1376h152v-1513h-1663z" />
    <glyph glyph-name="afii10043" unicode="&#x429;" horiz-adv-x="2013" 
d="M156 0v1513h151v-1376h604v1376h152v-1376h604v1376h152v-1376h125v-424h-152v287h-1636z" />
    <glyph glyph-name="afii10044" unicode="&#x42a;" horiz-adv-x="1454" 
d="M12 1376l-0.00195312 137h580v-542h223c222.667 0 386.834 -38.667 492.501 -116s158.5 -201.333 158.5 -372c0 -168 -53.167 -290.5 -159.5 -367.5s-270.166 -115.5 -491.499 -115.5h-375v1376h-428zM591.998 137l213 0.000976562c170.667 0 298 25.667 382 77
s126 141 126 269c0 131.333 -42 222.666 -126 273.999s-211.333 77 -382 77h-213v-697z" />
    <glyph glyph-name="afii10045" unicode="&#x42b;" horiz-adv-x="1519" 
d="M156 0v1513h151v-542h223c222.667 0 387 -38.667 493 -116s159 -201.333 159 -372c0 -168 -53.333 -290.5 -160 -367.5s-270.667 -115.5 -492 -115.5h-374zM307 137l213 0.000976562c170.667 0 298 25.667 382 77s126 141 126 269c0 131.333 -42 222.666 -126 273.999
s-211.333 77 -382 77h-213v-697zM1339 0.000976562v1513h152v-1513h-152z" />
    <glyph glyph-name="afii10046" unicode="&#x42c;" horiz-adv-x="1169" 
d="M156 0v1513h151v-542h223c222.667 0 387 -38.667 493 -116s159 -201.333 159 -372c0 -168 -53.333 -290.5 -160 -367.5s-270.667 -115.5 -492 -115.5h-374zM307 137l213 0.000976562c170.667 0 298 25.667 382 77s126 141 126 269c0 131.333 -42 222.666 -126 273.999
s-211.333 77 -382 77h-213v-697z" />
    <glyph glyph-name="afii10047" unicode="&#x42d;" horiz-adv-x="1667" 
d="M90 397h168c57.333 -75.333 108 -128.333 152 -159c102.667 -83.333 226.667 -125 372 -125c166.667 0 311.834 58 435.501 174s191.5 257.333 203.5 424h-876v137h872c-20.667 161.333 -90 293.833 -208 397.5s-259 155.5 -423 155.5c-134 0 -252.667 -34.333 -356 -103
c-57.333 -38 -112 -97.333 -164 -178h-172c58.667 130 150.5 232.5 275.5 307.5s265.5 112.5 421.5 112.5c225.333 0 412.666 -74.667 561.999 -224s224 -337.333 224 -564c0 -221.333 -76.167 -406.5 -228.5 -555.5s-341.166 -223.5 -566.499 -223.5
c-308.667 0 -539.334 141.333 -692.001 424z" />
    <glyph glyph-name="afii10048" unicode="&#x42e;" horiz-adv-x="2213" 
d="M156 0l0.000976562 1513h151v-665h225c23.333 192.667 111.166 356.167 263.499 490.5s328.833 201.5 529.5 201.5c220 0 408.167 -76.833 564.5 -230.5s234.5 -338.167 234.5 -553.5c0 -214.667 -78.5 -398.834 -235.5 -552.501s-344.833 -230.5 -563.5 -230.5
c-211.333 0 -392.5 71 -543.5 213s-234.167 317 -249.5 525h-225v-711h-151zM678.001 762.001c0 -178.667 63.167 -331.501 189.5 -458.501s278.833 -190.5 457.5 -190.5c176 0 327.5 63.167 454.5 189.5s190.5 276.833 190.5 451.5c0 177.333 -63.5 329.5 -190.5 456.5
s-278.5 190.5 -454.5 190.5c-174.667 0 -326.167 -63.167 -454.5 -189.5s-192.5 -276.166 -192.5 -449.499z" />
    <glyph glyph-name="afii10049" unicode="&#x42f;" horiz-adv-x="1236" 
d="M55 1026c0 194 76 332.001 228 414.001c90 49.333 231.333 73.666 424 72.999h374v-1513h-151v1376h-213c-154 0 -270 -18.333 -348 -55c-106.667 -50.667 -160 -147 -160 -289c0 -172 76.333 -278.333 229 -319c36.667 -9.33301 176.667 -14.333 420 -15l-592 -698h-188
l491 571c-165.333 0 -292.333 41.333 -381 124s-133 193 -133 331z" />
    <glyph glyph-name="afii10065" unicode="&#x430;" horiz-adv-x="1398" 
d="M86 557c0 168 56.332 308.333 168.999 421s253 169 421 169c188.667 0 336 -75 442 -225v198h152v-1120h-152v197c-60 -80.667 -123.167 -138.167 -189.5 -172.5s-147.166 -51.5 -242.499 -51.5c-172 0 -315 55.667 -429 167s-171 250.333 -171 417zM239.999 567
c0 -128.667 43.001 -236.501 129.001 -323.501s192.333 -130.5 319 -130.5c120 0 221.667 43.667 305 131s125 194.333 125 321c0 124 -42.333 228.833 -127 314.5s-188.334 128.5 -311.001 128.5c-121.333 0 -225 -43.167 -311 -129.5s-129 -190.166 -129 -311.499z" />
    <glyph glyph-name="afii10066" unicode="&#x431;" horiz-adv-x="1343" 
d="M96 567c0 66.667 1.33691 126.334 4.00391 179.001s8.5 112.167 17.5 178.5s21 124.5 36 174.5s36.833 100.5 65.5 151.5s62.167 94.333 100.5 130s86.166 66 143.499 91s122 41.167 194 48.5c80.667 8 147 14.333 199 19s102.167 12.167 150.5 22.5
s99.833 25.166 154.5 44.499v-146c-104 -44 -272 -74.667 -504 -92c-40.667 -2.66699 -78.834 -10.834 -114.501 -24.501s-65.667 -29 -90 -46s-47.5 -38.5 -69.5 -64.5s-39.5 -49.667 -52.5 -71s-25.333 -46.666 -37 -75.999s-19.834 -51.166 -24.501 -65.499
s-9.66699 -32.833 -15 -55.5l-8 -35c106.667 144.667 252.667 217 438 217c168 0 307 -55.667 417 -167s165 -252.333 165 -423c0 -168 -54 -307.333 -162 -418s-244 -166 -408 -166c-174.667 0 -318.334 55.667 -431.001 167s-169 253.666 -169 426.999zM250.004 563
c0 -131.333 41.668 -239.167 125.001 -323.5s189 -126.5 317 -126.5c121.333 0 221.666 41.5 300.999 124.5s119 188.833 119 317.5c0 130 -40.667 238 -122 324s-183.333 129 -306 129c-124 0 -227.333 -42.5 -310 -127.5s-124 -190.833 -124 -317.5z" />
    <glyph glyph-name="afii10067" unicode="&#x432;" horiz-adv-x="968" 
d="M129 0l-0.000976562 1120h389c112 0 196 -28.333 252 -85s84 -121 84 -193c0 -69.333 -23.333 -130.333 -70 -183c148.667 -58.667 223.334 -163.667 224.001 -315c0 -109.333 -39.667 -194 -119 -254s-182.333 -90 -309 -90h-451zM280.999 139h297
c186 2.66699 278.667 71 278 205c0 69.333 -26 121.833 -78 157.5s-121 53.5 -207 53.5h-290v-416zM280.999 692l229 0.000976562c128.667 0 192.667 50 192 150c0 91.333 -62 137.666 -186 138.999h-235v-289z" />
    <glyph glyph-name="afii10068" unicode="&#x433;" horiz-adv-x="755" 
d="M129 0v1120h719v-139h-569v-981h-150z" />
    <glyph glyph-name="afii10069" unicode="&#x434;" horiz-adv-x="1368" 
d="M55 137h135l414 983h160l414 -983h135v-383h-172v246h-914v-246h-172v383zM342 137h680l-344 805z" />
    <glyph glyph-name="afii10070" unicode="&#x435;" horiz-adv-x="1331" 
d="M86 565c0 162.667 56.333 300.334 169 413.001s250.334 169 413.001 169c106.667 0 205.334 -26.333 296.001 -79s161.334 -123.334 212.001 -212.001c50.667 -90 75.667 -205.333 75 -346h-1013c5.33301 -110.667 50.666 -204.5 135.999 -281.5
s185.333 -115.5 300 -115.5c84.667 0 163.167 23.5 235.5 70.5s124.166 108.833 155.499 185.5h158c-28.667 -87.333 -83.334 -169.333 -164.001 -246c-106.667 -100 -233.667 -150 -381 -150c-165.333 0 -305.333 57 -420 171s-172 254.333 -172 421zM242 647h858.002
c-26 112 -77.667 200.167 -155 264.5s-170.333 96.5 -279 96.5c-106.667 0 -198.834 -33.167 -276.501 -99.5s-126.834 -153.5 -147.501 -261.5z" />
    <glyph glyph-name="afii10072" unicode="&#x436;" horiz-adv-x="1572" 
d="M14 0l465 557l-436 563h186l437 -563l-463 -557h-189zM752 0v1120h151v-1120h-151zM989 557l436 563h187l-436 -563l464 -557h-188z" />
    <glyph glyph-name="afii10073" unicode="&#x437;" horiz-adv-x="937" 
d="M55 309l137.995 0.00195312l18 -30c12 -20.667 29.333 -43.334 52 -68.001s55.834 -47.167 99.501 -67.5s90.834 -30.5 141.501 -30.5c84.667 0 156 18.667 214 56s87 84 87 140c0 68 -26.333 120.5 -79 157.5s-120 55.5 -202 55.5h-147v150h147
c57.333 0 104.5 15 141.5 45s55.5 75.667 55.5 137c0 45.333 -22.833 82.333 -68.5 111s-95.167 43 -148.5 43c-52 0 -97.167 -13 -135.5 -39s-63.5 -51.333 -75.5 -76l-19 -39h-137l19 47c10.667 30 28.334 63.167 53.001 99.5s62.834 69.833 114.501 100.5
s111.834 46 180.501 46c110.667 0 197.334 -27.333 260.001 -82s94 -125 94 -211c0 -52 -14 -102.167 -42 -150.5s-60.333 -80.166 -97 -95.499c62.667 -9.33301 116.5 -44.333 161.5 -105s67.5 -125.334 67.5 -194.001c0 -96.667 -40.5 -176.834 -121.5 -240.501
s-188.5 -95.5 -322.5 -95.5c-66.667 0 -127.667 11.667 -183 35s-98.833 51.333 -130.5 84s-58.334 65.5 -80.001 98.5s-36.5 60.833 -44.5 83.5z" />
    <glyph glyph-name="afii10074" unicode="&#x438;" horiz-adv-x="1245" 
d="M129 0v1120h150v-911l688 911h149v-1120h-149v911l-688 -911h-150z" />
    <glyph glyph-name="afii10075" unicode="&#x439;" horiz-adv-x="1245" 
d="M129 0v1120h150v-911l688 911h149v-1120h-149v911l-688 -911h-150zM313 1501l130.998 0.000976562c6.66699 -44 24.667 -75.333 54 -94c39.333 -22 81.5 -33 126.5 -33s87.5 11 127.5 33c28.667 19.333 46.334 50.666 53.001 93.999h131
c-9.33301 -50.667 -21.166 -89.167 -35.499 -115.5s-35.833 -49.833 -64.5 -70.5c-54.667 -39.333 -125 -59.333 -211 -60c-178 0 -282 82 -312 246z" />
    <glyph glyph-name="afii10076" unicode="&#x43a;" horiz-adv-x="976" 
d="M129 0v1120h152v-1120h-152zM367 557l436 563h186l-436 -563l465 -557h-189z" />
    <glyph glyph-name="afii10077" unicode="&#x43b;" 
d="M16 0l471 1120h160l471 -1120h-153l-402 942l-393 -942h-154z" />
    <glyph glyph-name="afii10078" unicode="&#x43c;" horiz-adv-x="1413" 
d="M129 0v1120h227l377 -942l385 942h228v-1120h-152v936l-397 -936h-140l-376 936v-936h-152z" />
    <glyph glyph-name="afii10079" unicode="&#x43d;" horiz-adv-x="1114" 
d="M129 0v1120h150v-471h628v471h150v-1120h-150v512h-628v-512h-150z" />
    <glyph glyph-name="afii10080" unicode="&#x43e;" horiz-adv-x="1341" 
d="M86 567c0 164 56.3311 301.667 168.998 413s252.334 167 419.001 167c168 0 306.833 -55.667 416.5 -167s164.5 -252.333 164.5 -423c0 -168 -53.833 -307.333 -161.5 -418s-243.5 -166 -407.5 -166c-173.333 0 -316.666 56 -429.999 168s-170 254 -170 426zM239.998 563
c0 -131.333 41.501 -239.167 124.501 -323.5s188.833 -126.5 317.5 -126.5c121.333 0 221.666 41.5 300.999 124.5s119 188.833 119 317.5c0 130 -40.667 238 -122 324s-183.333 129 -306 129c-124 0 -227.333 -42.5 -310 -127.5s-124 -190.833 -124 -317.5z" />
    <glyph glyph-name="afii10081" unicode="&#x43f;" horiz-adv-x="1124" 
d="M129 0v1120h928v-1120h-152v983h-624v-983h-152z" />
    <glyph glyph-name="afii10082" unicode="&#x440;" horiz-adv-x="1396" 
d="M129 -393l-0.000976562 1513h152v-192c96.667 146 243.334 219 440.001 219c166.667 0 306.667 -56.667 420 -170s170 -253.333 170 -420c0 -164 -57.333 -302.333 -172 -415s-255.334 -169 -422.001 -169c-191.333 0 -336.666 73.333 -435.999 220v-586h-152z
M269.999 565c0 -130 42.332 -237.832 126.999 -323.499s191.334 -128.5 320.001 -128.5c124 0 228.333 42.667 313 128s127 190.666 127 315.999c0 128.667 -42.333 236 -127 322s-189.667 129 -315 129c-124 0 -229.167 -42.833 -315.5 -128.5s-129.5 -190.5 -129.5 -314.5
z" />
    <glyph glyph-name="afii10083" unicode="&#x441;" horiz-adv-x="1325" 
d="M86 563c0 162.667 58 300.668 174 414.001s258 170 426 170c125.333 0 238.333 -33.167 339 -99.5s173.334 -155.5 218.001 -267.5h-170c-88.667 151.333 -218.334 227.333 -389.001 228c-124 0 -229 -43.333 -315 -130s-129 -193 -129 -319
c0 -124 43.667 -229.333 131 -316s193.666 -130 318.999 -130c79.333 0 148.333 16.667 207 50s117.334 89 176.001 167h172c-53.333 -102.667 -112 -179.334 -176 -230.001c-108 -84.667 -232.333 -127 -373 -127c-172 0 -316.667 56.667 -434 170s-176 253.333 -176 420z
" />
    <glyph glyph-name="afii10084" unicode="&#x442;" horiz-adv-x="741" 
d="M12 983v137h983v-137h-415v-983h-152v983h-416z" />
    <glyph glyph-name="afii10085" unicode="&#x443;" horiz-adv-x="1097" 
d="M18 1120h166l355 -893l379 893h161l-647 -1513h-162l183 430z" />
    <glyph glyph-name="afii10086" unicode="&#x444;" horiz-adv-x="1490" 
d="M86 567c0 164 57.667 301.667 173 413s256.333 167 423 167v145h152v-145c160 0 295.167 -57 405.5 -171s165.5 -253.667 165.5 -419c0 -168 -54.333 -307.333 -163 -418s-244.667 -166 -408 -166v-194h-152v194c-173.333 0 -316 56 -428 168s-168 254 -168 426zM240 563
c0 -131.333 41.5 -239.167 124.5 -323.5s188.833 -126.5 317.5 -126.5v895c-124 0 -228.667 -42.5 -314 -127.5s-128 -190.833 -128 -317.5zM834 112.999c121.333 0 221.167 42.001 299.5 126.001s117.5 189.333 117.5 316c0 125.333 -40.5 232.166 -121.5 320.499
s-179.5 132.5 -295.5 132.5v-895z" />
    <glyph glyph-name="afii10087" unicode="&#x445;" horiz-adv-x="983" 
d="M16 0l390 571l-390 549h172l304 -432l301 432h174l-392 -549l392 -571h-174l-301 449l-304 -449h-172z" />
    <glyph glyph-name="afii10088" unicode="&#x446;" horiz-adv-x="1146" 
d="M129 0v1120h152v-983h524v983h151v-983h136v-401h-152v264h-811z" />
    <glyph glyph-name="afii10089" unicode="&#x447;" horiz-adv-x="1024" 
d="M70 766v354.001h151v-346c0 -100 19.833 -163.167 59.5 -189.5s118.167 -39.5 235.5 -39.5h229v575h150v-1120h-150v412h-356c-98 0 -175.667 33.667 -233 101s-86 151.666 -86 252.999z" />
    <glyph glyph-name="afii10090" unicode="&#x448;" horiz-adv-x="1683" 
d="M129 0v1120h152v-983h485v983h152v-983h485v983h151v-1120h-1425z" />
    <glyph glyph-name="afii10091" unicode="&#x449;" horiz-adv-x="1806" 
d="M129 0v1120h152v-983h485v983h152v-983h485v983h151v-983h136v-401h-152v264h-1409z" />
    <glyph glyph-name="afii10092" unicode="&#x44a;" horiz-adv-x="1138" 
d="M12 963v157h453v-364h291c126.667 0 231 -35.5 313 -106.5s123 -162.5 123 -274.5s-40.333 -202.5 -121 -271.5s-183 -103.5 -307 -103.5h-451v963h-301zM465 137h297c83.333 1.33301 150.5 23.5 201.5 66.5s76.5 100 76.5 171s-26.5 129 -79.5 174
s-121.167 67.5 -204.5 67.5h-291v-479z" />
    <glyph glyph-name="afii10093" unicode="&#x44b;" horiz-adv-x="1269" 
d="M129 0v1120h152v-364h290c126.667 0 231.167 -35.5 313.5 -106.5s123.5 -162.5 123.5 -274.5s-40.333 -202.5 -121 -271.5s-183 -103.5 -307 -103.5h-451zM281 137h296.999c83.333 1.33301 150.5 23.5 201.5 66.5s76.5 100 76.5 171s-26.667 129 -80 174
s-121.666 67.5 -204.999 67.5h-290v-479zM1092 0v1120h151v-1120h-151z" />
    <glyph glyph-name="afii10094" unicode="&#x44c;" horiz-adv-x="954" 
d="M129 0v1120h152v-364h290c126.667 0 231.167 -35.5 313.5 -106.5s123.5 -162.5 123.5 -274.5s-40.333 -202.5 -121 -271.5s-183 -103.5 -307 -103.5h-451zM281 137h296.999c83.333 1.33301 150.5 23.5 201.5 66.5s76.5 100 76.5 171s-26.667 129 -80 174
s-121.666 67.5 -204.999 67.5h-290v-479z" />
    <glyph glyph-name="afii10095" unicode="&#x44d;" horiz-adv-x="1331" 
d="M86 330h172.002c60 -78 119.333 -133.667 178 -167s127.667 -50 207 -50c113.333 0 211.666 36.167 294.999 108.5s133 162.5 149 270.5h-649v137h652c-16.667 110.667 -66.334 201.5 -149.001 272.5s-180.667 106.5 -294 106.5c-170.667 0 -300.334 -76 -389.001 -228
h-168c45.333 113.333 117.833 202.833 217.5 268.5s212.834 98.5 339.501 98.5c168 0 309.667 -56.667 425 -170s173 -251.333 173 -414c0 -166.667 -58.667 -306.667 -176 -420s-262 -170 -434 -170c-138 0 -262.333 42.333 -373 127c-65.333 53.333 -124 130 -176 230z
" />
    <glyph glyph-name="afii10096" unicode="&#x44e;" horiz-adv-x="1746" 
d="M129 0l0.000976562 1120h150v-491h215c15.333 148.667 78.166 272.167 188.499 370.5s242.5 147.5 396.5 147.5c168 0 307 -55.667 417 -167s165 -252.333 165 -423c0 -168 -54 -307.333 -162 -418s-243.667 -166 -407 -166c-160 0 -295 48.167 -405 144.5
s-173.667 221.166 -191 374.499h-217v-492h-150zM645.001 563.001c0 -131.333 41.668 -239.167 125.001 -323.5s189 -126.5 317 -126.5c121.333 0 221.666 41.5 300.999 124.5s119 188.833 119 317.5c0 130 -40.5 238 -121.5 324s-183.167 129 -306.5 129
c-124 0 -227.333 -42.5 -310 -127.5s-124 -190.833 -124 -317.5z" />
    <glyph glyph-name="afii10097" unicode="&#x44f;" horiz-adv-x="1028" 
d="M119 0l315 379c-92.667 23.333 -166.667 67.333 -222 132s-83 142.667 -83 234c0 112 40.333 202.5 121 271.5s183 103.5 307 103.5h451v-1120h-152v983h-297c-83.333 -1.33301 -150.5 -23.5 -201.5 -66.5s-76.5 -100 -76.5 -171s26.5 -129 79.5 -174
s121.167 -67.5 204.5 -67.5h160l-418 -504h-188z" />
    <glyph glyph-name="uni2000" unicode="&#x2000;" horiz-adv-x="940" 
 />
    <glyph glyph-name="uni2001" unicode="&#x2001;" horiz-adv-x="1882" 
 />
    <glyph glyph-name="uni2002" unicode="&#x2002;" horiz-adv-x="940" 
 />
    <glyph glyph-name="uni2003" unicode="&#x2003;" horiz-adv-x="1882" 
 />
    <glyph glyph-name="uni2004" unicode="&#x2004;" horiz-adv-x="626" 
 />
    <glyph glyph-name="uni2005" unicode="&#x2005;" horiz-adv-x="468" 
 />
    <glyph glyph-name="uni2006" unicode="&#x2006;" horiz-adv-x="313" 
 />
    <glyph glyph-name="uni2007" unicode="&#x2007;" horiz-adv-x="313" 
 />
    <glyph glyph-name="uni2008" unicode="&#x2008;" horiz-adv-x="233" 
 />
    <glyph glyph-name="uni2009" unicode="&#x2009;" horiz-adv-x="374" 
 />
    <glyph glyph-name="uni200A" unicode="&#x200a;" horiz-adv-x="104" 
 />
    <glyph glyph-name="uni2010" unicode="&#x2010;" horiz-adv-x="679" 
d="M63 477v129h555v-129h-555z" />
    <glyph glyph-name="uni2011" unicode="&#x2011;" horiz-adv-x="679" 
d="M63 477v129h555v-129h-555z" />
    <glyph glyph-name="figuredash" unicode="&#x2012;" horiz-adv-x="679" 
d="M63 477v129h555v-129h-555z" />
    <glyph glyph-name="endash" unicode="&#x2013;" horiz-adv-x="1024" 
d="M0 477v129h1024v-129h-1024z" />
    <glyph glyph-name="emdash" unicode="&#x2014;" horiz-adv-x="2048" 
d="M0 477v129h2048v-129h-2048z" />
    <glyph glyph-name="quoteleft" unicode="&#x2018;" horiz-adv-x="718" 
d="M201 1513h151l180 -393h-151z" />
    <glyph glyph-name="quoteright" unicode="&#x2019;" horiz-adv-x="718" 
d="M186 1120l181 393h151l-180 -393h-152z" />
    <glyph glyph-name="quotesinglbase" unicode="&#x201a;" horiz-adv-x="724" 
d="M182 -137l180 395h152l-180 -395h-152z" />
    <glyph glyph-name="quotedblleft" unicode="&#x201c;" horiz-adv-x="1028" 
d="M197 1513h151l180 -393h-151zM500 1513h151l180 -393h-151z" />
    <glyph glyph-name="quotedblright" unicode="&#x201d;" horiz-adv-x="991" 
d="M178 1120l180 393h152l-180 -393h-152zM473 1120l180 393h152l-180 -393h-152z" />
    <glyph glyph-name="quotedblbase" unicode="&#x201e;" horiz-adv-x="1028" 
d="M182 -137l180 395h152l-180 -395h-152zM483 -137l181 395h151l-180 -395h-152z" />
    <glyph glyph-name="ellipsis" unicode="&#x2026;" horiz-adv-x="2048" 
d="M266 0v258h152v-258h-152zM948 0v258h152v-258h-152zM1630 0v258h152v-258h-152z" />
    <glyph glyph-name="uni202F" unicode="&#x202f;" horiz-adv-x="374" 
 />
    <glyph glyph-name="guilsinglleft" unicode="&#x2039;" horiz-adv-x="514" 
d="M82 614l229 408l121 -66l-190 -342l190 -344l-121 -67z" />
    <glyph glyph-name="guilsinglright" unicode="&#x203a;" horiz-adv-x="514" 
d="M82 270l190 344l-190 342l121 66l229 -408l-229 -411z" />
    <glyph glyph-name="uni205F" unicode="&#x205f;" horiz-adv-x="468" 
 />
    <glyph glyph-name="Euro" unicode="&#x20ac;" 
d="M-66 819l50.001 121.001h153c39.333 220 106.5 375 201.5 465s223.167 135 384.5 135c91.333 0 170.166 -17.333 236.499 -52s137.833 -102 214.5 -202l-64 -141c-66.667 98 -127.667 165.833 -183 203.5s-122.666 56.5 -201.999 56.5
c-120 0 -213.5 -34.833 -280.5 -104.5s-118.167 -189.834 -153.5 -360.501h719l-52 -121h-679c-2.66699 -46.667 -4.33398 -72.667 -5.00098 -78c0 -23.333 0.666992 -44.333 2 -63h621l-49 -121h-561c19.333 -144.667 65.833 -256 139.5 -334s169.167 -117 286.5 -117
c79.333 0 143.166 12.333 191.499 37s112.833 74.667 193.5 150v-166c-54.667 -54.667 -111.667 -94 -171 -118s-130 -36 -212 -36c-161.333 0 -290.166 47.5 -386.499 142.5s-161.5 242.167 -195.5 441.5h-196l49 121h139c-1.33301 19.333 -2 40.333 -2 63
c0 5.33301 1.33301 31.333 4 78h-193z" />
    <glyph glyph-name="trademark" unicode="&#x2122;" horiz-adv-x="2048" 
d="M129 1407v106h584v-106h-228v-756h-127v756h-229zM856 651v862h178l355 -692l354 692h176v-862h-127v697l-354 -697h-103l-350 697v-697h-129z" />
    <glyph glyph-name="uniE000" unicode="&#xe000;" horiz-adv-x="1120" 
d="M0 1120h1120v-1120h-1120v1120z" />
    <glyph glyph-name="uniFB01" unicode="&#xfb01;" horiz-adv-x="997" 
d="M33 983l0.000976562 137h174c-4 262 139.333 393 430 393v-137c-104 0 -176.833 -19.333 -218.5 -58s-61.834 -104.667 -60.501 -198h279v-137h-279v-983h-151v983h-174zM717.001 0v1120h151v-1120h-151zM717.001 1243v258h151v-258h-151z" />
    <glyph glyph-name="uniFB02" unicode="&#xfb02;" horiz-adv-x="993" 
d="M33 983l0.000976562 137h174c-4 262 139.333 393 430 393v-137c-104 0 -176.833 -19.333 -218.5 -58s-61.834 -104.667 -60.501 -198h279v-137h-279v-983h-151v983h-174zM713.001 0v1513h151v-1513h-151z" />
    <glyph glyph-name="uniFB03" unicode="&#xfb03;" horiz-adv-x="1499" 
d="M33 983l0.00195312 137h174c-4 262 139.333 393 430 393v-137c-104 0 -176.833 -19.333 -218.5 -58s-61.834 -104.667 -60.501 -198h355c-4 262 139.333 393 430 393v-137c-104 0 -176.833 -19.333 -218.5 -58s-61.834 -104.667 -60.501 -198h279v-137h-279v-983h-151
v983h-355v-983h-151v983h-174zM1219 0v1120h151v-1120h-151zM1219 1243v258h151v-258h-151z" />
    <glyph glyph-name="uniFB04" unicode="&#xfb04;" horiz-adv-x="1499" 
d="M33 983l0.00195312 137h174c-4 262 139.333 393 430 393v-137c-104 0 -176.833 -19.333 -218.5 -58s-61.834 -104.667 -60.501 -198h355c-4 262 139.333 393 430 393v-137c-104 0 -176.833 -19.333 -218.5 -58s-61.834 -104.667 -60.501 -198h279v-137h-279v-983h-151
v983h-355v-983h-151v983h-174zM1219 0v1513h151v-1513h-151z" />
    <glyph glyph-name=".null" horiz-adv-x="0" 
 />
    <glyph glyph-name="nonmarkingreturn" horiz-adv-x="682" 
 />
  </font>
</defs>
</svg>
